<svg xmlns="http://www.w3.org/2000/svg" xmlns:xlink="http://www.w3.org/1999/xlink" width="1920" height="1080" viewBox="0 0 1920 1080">
  <defs>
    <clipPath id="clip-Web_1920_12">
      <rect width="1920" height="1080"/>
    </clipPath>
  </defs>
  <g id="Web_1920_12" data-name="Web 1920 – 12" clip-path="url(#clip-Web_1920_12)">
    <rect width="1920" height="1080" fill="rgba(252,76,2,0)"/>
    <g id="Arrowa" transform="translate(530.509 109.661)">
      <path id="Path_9" data-name="Path 9" d="M124.581,91.575H262.6l-59.523-64.7,51.189-49.694L407.719,117.693,254.267,267.149l-51.189-51.2L262.6,160.645H124.581Z" transform="translate(340.363 379.351)" fill="##000"/>
      <path id="Path_10" data-name="Path 10" d="M124.581,65.015H230.554l-45.7-49.674,39.3-38.155L341.978,85.069,224.156,199.823l-39.3-39.31,45.7-42.465H124.581Z" transform="translate(102.189 500.695)" fill="##000"/>
      <path id="Path_11" data-name="Path 11" d="M124.581,65.015H230.554l-45.7-49.674,39.3-38.155L341.978,85.069,224.156,199.823l-39.3-39.31,45.7-42.465H124.581Z" transform="translate(22.221 301.696)" fill="##000"/>
      <path id="Path_6" data-name="Path 6" d="M124.581,33.5h67.952L163.228,1.652l25.2-24.466,75.55,69.177-75.55,73.583-25.2-25.206,29.305-27.23H124.581Z" transform="translate(265.279 685.437)" fill="##000"/>
      <path id="Path_7" data-name="Path 7" d="M124.581,65.015H230.554l-45.7-49.674,39.3-38.155L341.978,85.069,224.156,199.823l-39.3-39.31,45.7-42.465H124.581Z" transform="translate(-73.764 668.013)" fill="##000"/>
      <path id="Path_8" data-name="Path 8" d="M124.581,14.561h45.1L150.229-6.577l16.725-16.237,50.138,45.909L166.954,71.928,150.229,55.2l19.448-18.071h-45.1Z" transform="translate(-250.68 490.766)" fill="##000"/>
      <path id="Path_12" data-name="Path 12" d="M124.581,25.561H182.95L157.777-1.8l21.648-21.015,64.9,59.421-64.9,63.205L157.777,78.16,182.95,54.771H124.581Z" transform="translate(280.493 360.645)" fill="##000"/>
      <path id="Path_13" data-name="Path 13" d="M124.581,31.335h65.335L161.74.71l24.232-23.524L258.612,43.7l-72.641,70.749L161.74,90.212l28.177-26.181H124.581Z" transform="translate(435.231 233.065)" fill="##000"/>
      <path id="Path_14" data-name="Path 14" d="M124.581,43.192h79.642L169.876,5.861l29.538-28.675,88.547,81.077L199.414,144.5l-29.538-29.543,34.347-31.914H124.581Z" transform="translate(265.861 181.436)" fill="##000"/>
      <path id="Path_15" data-name="Path 15" d="M124.581,43.192h79.642L169.876,5.861l29.538-28.675,88.547,81.077L199.414,144.5l-29.538-29.543,34.347-31.914H124.581Z" transform="translate(84.136 139.78)" fill="##000"/>
      <path id="Path_16" data-name="Path 16" d="M124.581,43.192h79.642L169.876,5.861l29.538-28.675,88.547,81.077L199.414,144.5l-29.538-29.543,34.347-31.914H124.581Z" transform="translate(451.155 723.332)" fill="##000"/>
      <path id="Path_17" data-name="Path 17" d="M124.581,33.5h67.952L163.228,1.652l25.2-24.466,75.55,69.177-75.55,73.583-25.2-25.206,29.305-27.23H124.581Z" transform="translate(114.831 768.77)" fill="##000"/>
      <path id="Path_18" data-name="Path 18" d="M124.581,96.538H268.589l-62.106-67.5,53.41-51.85L420,123.789,259.894,279.73l-53.41-53.419L268.589,168.6H124.581Z" transform="translate(481.932 1.881)" fill="##000"/>
      <path id="Path_19" data-name="Path 19" d="M124.581,54.846h93.7L177.873,10.924l34.753-33.737,104.18,95.392L212.626,174.045l-34.753-34.758,40.411-37.548h-93.7Z" transform="translate(698.819 166.666)" fill="##000"/>
      <path id="Path_21" data-name="Path 21" d="M124.581,65.015H230.554l-45.7-49.674,39.3-38.155L341.978,85.069,224.156,199.823l-39.3-39.31,45.7-42.465H124.581Z" transform="translate(808.546 285.037)" fill="##000"/>
      <path id="Path_22" data-name="Path 22" d="M124.581,65.015H230.554l-45.7-49.674,39.3-38.155L341.978,85.069,224.156,199.823l-39.3-39.31,45.7-42.465H124.581Z" transform="translate(660.648 426.818)" fill="##000"/>
      <path id="Path_23" data-name="Path 23" d="M124.581,65.015H230.554l-45.7-49.674,39.3-38.155L341.978,85.069,224.156,199.823l-39.3-39.31,45.7-42.465H124.581Z" transform="translate(520.945 557.995)" fill="##000"/>
      <path id="Path_24" data-name="Path 24" d="M124.581,43.192h79.642L169.876,5.861l29.538-28.675,88.547,81.077L199.414,144.5l-29.538-29.543,34.347-31.914H124.581Z" transform="translate(-104.152 205.633)" fill="##000"/>
      <path id="Path_25" data-name="Path 25" d="M124.581,43.192h79.642L169.876,5.861l29.538-28.675,88.547,81.077L199.414,144.5l-29.538-29.543,34.347-31.914H124.581Z" transform="translate(212.347 33.024)" fill="##000"/>
      <path id="Path_26" data-name="Path 26" d="M124.581,43.192h79.642L169.876,5.861l29.538-28.675,88.547,81.077L199.414,144.5l-29.538-29.543,34.347-31.914H124.581Z" transform="translate(-46.755 30.267)" fill="##000"/>
      <path id="Path_27" data-name="Path 27" d="M124.581,25.561H182.95L157.777-1.8l21.648-21.015,64.9,59.421-64.9,63.205L157.777,78.16,182.95,54.771H124.581Z" transform="translate(-142.201 385.049)" fill="##000"/>
      <path id="Path_28" data-name="Path 28" d="M124.581,25.561H182.95L157.777-1.8l21.648-21.015,64.9,59.421-64.9,63.205L157.777,78.16,182.95,54.771H124.581Z" transform="translate(-142.201 385.049)" fill="##000"/>
      <path id="Path_29" data-name="Path 29" d="M124.581,2.784h30.886l-13.32-14.477L153.6-22.814,187.941,8.629,153.6,42.073,142.147,30.617l13.32-12.376H124.581Z" transform="translate(195.485 278.527)" fill="##000"/>
      <path id="Path_30" data-name="Path 30" d="M124.581,2.784h30.886l-13.32-14.477L153.6-22.814,187.941,8.629,153.6,42.073,142.147,30.617l13.32-12.376H124.581Z" transform="translate(328.498 603.126)" fill="##000"/>
      <path id="Path_31" data-name="Path 31" d="M124.581,2.784h30.886l-13.32-14.477L153.6-22.814,187.941,8.629,153.6,42.073,142.147,30.617l13.32-12.376H124.581Z" transform="translate(-110.115 147.672)" fill="##000"/>
      <path id="Path_32" data-name="Path 32" d="M124.581,2.784h30.886l-13.32-14.477L153.6-22.814,187.941,8.629,153.6,42.073,142.147,30.617l13.32-12.376H124.581Z" transform="translate(46.402 636.87)" fill="##000"/>
      <path id="Path_33" data-name="Path 33" d="M124.581,2.784h30.886l-13.32-14.477L153.6-22.814,187.941,8.629,153.6,42.073,142.147,30.617l13.32-12.376H124.581Z" transform="translate(407.513 677.338)" fill="##000"/>
      <path id="Path_34" data-name="Path 34" d="M124.581,2.784h30.886l-13.32-14.477L153.6-22.814,187.941,8.629,153.6,42.073,142.147,30.617l13.32-12.376H124.581Z" transform="translate(629.968 331.377)" fill="##000"/>
      <path id="Path_35" data-name="Path 35" d="M124.581,2.784h30.886l-13.32-14.477L153.6-22.814,187.941,8.629,153.6,42.073,142.147,30.617l13.32-12.376H124.581Z" transform="translate(218.687 442.787)" fill="##000"/>
      <path id="Path_36" data-name="Path 36" d="M124.581,8.4h37.657L146-9.256l13.966-13.558,41.868,38.336L159.965,56.3,146,42.331l16.24-15.09H124.581Z" transform="translate(-55.55 -25.457)" fill="##000"/>
      <path id="Path_37" data-name="Path 37" d="M124.581,15.5h46.148l-19.9-21.672,17.116-16.647L219.25,24.254,167.943,74.32l-17.116-17.15,19.9-18.527H124.581Z" transform="translate(-205.836 299.13)" fill="##000"/>
      <path id="Path_38" data-name="Path 38" d="M124.581,15.5h46.148l-19.9-21.672,17.116-16.647L219.25,24.254,167.943,74.32l-17.116-17.15,19.9-18.527H124.581Z" transform="translate(-146.34 815.462)" fill="##000"/>
      <path id="Path_39" data-name="Path 39" d="M124.581,15.5h46.148l-19.9-21.672,17.116-16.647L219.25,24.254,167.943,74.32l-17.116-17.15,19.9-18.527H124.581Z" transform="translate(-168.433 693.658)" fill="##000"/>
      <path id="Path_40" data-name="Path 40" d="M124.581-3.655h23.074L137.7-14.491l8.558-8.323L171.916.72,146.262,25.753,137.7,17.178l9.951-9.264H124.581Z" transform="translate(137.196 708.25)" fill="##000"/>
      <path id="Path_41" data-name="Path 41" d="M124.581-3.655h23.074L137.7-14.491l8.558-8.323L171.916.72,146.262,25.753,137.7,17.178l9.951-9.264H124.581Z" transform="translate(258.38 842.083)" fill="##000"/>
      <path id="Path_42" data-name="Path 42" d="M124.581-3.655h23.074L137.7-14.491l8.558-8.323L171.916.72,146.262,25.753,137.7,17.178l9.951-9.264H124.581Z" transform="translate(555.39 363.525)" fill="##000"/>
      <path id="Path_43" data-name="Path 43" d="M124.581-3.655h23.074L137.7-14.491l8.558-8.323L171.916.72,146.262,25.753,137.7,17.178l9.951-9.264H124.581Z" transform="translate(114.831 39.729)" fill="##000"/>
      <path id="Path_44" data-name="Path 44" d="M124.581-3.655h23.074L137.7-14.491l8.558-8.323L171.916.72,146.262,25.753,137.7,17.178l9.951-9.264H124.581Z" transform="translate(11.894 197.586)" fill="##000"/>
      <path id="Path_45" data-name="Path 45" d="M124.581-3.655h23.074L137.7-14.491l8.558-8.323L171.916.72,146.262,25.753,137.7,17.178l9.951-9.264H124.581Z" transform="translate(-111.883 42.647)" fill="##000"/>
      <path id="Path_46" data-name="Path 46" d="M124.581-3.655h23.074L137.7-14.491l8.558-8.323L171.916.72,146.262,25.753,137.7,17.178l9.951-9.264H124.581Z" transform="translate(-158.169 91.214)" fill="##000"/>
      <path id="Path_47" data-name="Path 47" d="M124.581,31.824h65.8L162,.922l24.4-23.736L259.569,44.3l-73.16,71.388L162,91.234l28.378-26.418h-65.8Z" transform="translate(-321.204 348.755)" fill="##000"/>
      <path id="Path_48" data-name="Path 48" d="M124.581,31.824h65.8L162,.922l24.4-23.736L259.569,44.3l-73.16,71.388L162,91.234l28.378-26.418h-65.8Z" transform="translate(-245.104 154.188)" fill="##000"/>
      <path id="Path_49" data-name="Path 49" d="M124.581,31.824h65.8L162,.922l24.4-23.736L259.569,44.3l-73.16,71.388L162,91.234l28.378-26.418h-65.8Z" transform="translate(-245.104 154.188)" fill="##000"/>
      <path id="Path_50" data-name="Path 50" d="M124.581-.417H151.6L139.95-13.084l10.023-9.73L180.018,4.7,149.973,33.96,139.95,23.935,151.6,13.106H124.581Z" transform="translate(66.244 250.325)" fill="##000"/>
      <path id="Path_51" data-name="Path 51" d="M124.581-.417H151.6L139.95-13.084l10.023-9.73L180.018,4.7,149.973,33.96,139.95,23.935,151.6,13.106H124.581Z" transform="translate(156.91 88.296)" fill="##000"/>
      <path id="Path_52" data-name="Path 52" d="M124.581,11.276h41.133L147.975-8l15.256-14.81L208.963,19.06,163.23,63.6,147.975,48.344l17.739-16.483H124.581Z" transform="translate(417.865 4.798)" fill="##000"/>
      <path id="Path_53" data-name="Path 53" d="M124.581-.417H151.6L139.95-13.084l10.023-9.73L180.018,4.7,149.973,33.96,139.95,23.935,151.6,13.106H124.581Z" transform="translate(379.794 118.136)" fill="##000"/>
      <path id="Path_1782" data-name="Path 1782" d="M124.581,11.776h41.735l-18-19.563L163.8-22.814l46.4,42.487L163.8,64.867,148.317,49.385l18-16.724H124.581Z" transform="translate(623.724 406.014)" fill="##000"/>
      <path id="Path_1783" data-name="Path 1783" d="M124.581,43.192h79.642L169.876,5.861l29.538-28.675,88.547,81.077L199.414,144.5l-29.538-29.543,34.347-31.914H124.581Z" transform="translate(-417.09 197.586)" fill="##000"/>
      <path id="Path_1784" data-name="Path 1784" d="M124.581,51.643H214.42L175.676,9.532,209-22.814l99.884,91.458L209,165.927,175.676,132.6l38.744-36H124.581Z" transform="translate(-114.611 488.597)" fill="##000"/>
      <path id="Path_1785" data-name="Path 1785" d="M124.581,43.192h79.642L169.876,5.861l29.538-28.675,88.547,81.077L199.414,144.5l-29.538-29.543,34.347-31.914H124.581Z" transform="translate(-368.25 26.759)" fill="##000"/>
    </g>
  </g>
</svg>
