<svg xmlns="http://www.w3.org/2000/svg" xmlns:xlink="http://www.w3.org/1999/xlink" width="514" height="514" viewBox="0 0 514 514">
  <defs>
    <linearGradient id="linear-gradient" x1="1.194" y1="-0.411" x2="0.075" y2="1.166" gradientUnits="objectBoundingBox">
      <stop offset="0" stop-color="#1788fb"/>
      <stop offset="0.483" stop-color="#238df8"/>
      <stop offset="1" stop-color="#17e9fb"/>
    </linearGradient>
  </defs>
  <g id="Group_1608" data-name="Group 1608" transform="translate(-33)">
    <circle id="Ellipse_13" data-name="Ellipse 13" cx="257" cy="257" r="257" transform="translate(33)" fill="url(#linear-gradient)"/>
    <path id="Subtraction_1" data-name="Subtraction 1" d="M2.027,248.377h0l12.218-49.91,14.3-55.381C28.6,142.865,34,120.623,39.949,97.43l79.256-.092v-.021h1.058a89.349,89.349,0,0,0,12.813-.793A40.854,40.854,0,0,0,144.808,93.2a24.309,24.309,0,0,0,9.142-7.281A27.976,27.976,0,0,0,159,73.259a26.508,26.508,0,0,0-.036-9.656,14.982,14.982,0,0,0-3.215-6.659c-2.765-3.236-7.076-5.38-13.179-6.555A94.487,94.487,0,0,0,125.23,49.2h-4.108l-68.533.042.175-.654L64.8-.332l91.312.1A137.329,137.329,0,0,1,173.46.793a86.952,86.952,0,0,1,15.084,3.219,56.164,56.164,0,0,1,12.541,5.624,41.13,41.13,0,0,1,9.721,8.24A38.8,38.8,0,0,1,216.37,26.5a45.9,45.9,0,0,1,3.436,10.551,63.649,63.649,0,0,1,1.166,12.582,95.808,95.808,0,0,1-1.247,14.722c-3.918,24.8-15.488,41.4-35.373,50.753l-.1.659a60.155,60.155,0,0,1,19.981,5.936,38.934,38.934,0,0,1,13.343,11.2c8.062,10.8,10.562,26.324,7.431,46.142a84.17,84.17,0,0,1-4.832,17.924,71.9,71.9,0,0,1-8.009,14.857,74.375,74.375,0,0,1-23.641,21.349c-16.919,9.864-39.2,15.077-64.423,15.077Zm82.361-105.29h0L70.65,198.467l34.564.355,1.9,0h.1l2.028,0c10.111,0,21.714-.28,31.495-3.618a37.947,37.947,0,0,0,7.056-3.2,27.894,27.894,0,0,0,5.952-4.672,25.093,25.093,0,0,0,4.461-6.425,30.147,30.147,0,0,0,2.581-8.457,32.451,32.451,0,0,0,.323-8.474,18.256,18.256,0,0,0-1.766-6.311,20.3,20.3,0,0,0-7.91-8.217,39.084,39.084,0,0,0-11.7-4.354c-8.489-1.859-18.245-2.014-26.722-2.014H84.388Z" transform="translate(177.313 133.262)" fill="#f8f8f8" stroke="rgba(250,250,250,0.24)" stroke-width="20"/>
  </g>
</svg>
